<svg width="24" height="24" viewBox="0 0 24 24" fill="none" xmlns="http://www.w3.org/2000/svg">
<path fill-rule="evenodd" clip-rule="evenodd" d="M1.30308 18.4552L1.06055 17.4851L4.94112 16.515L5.18365 17.4851C5.37735 18.2599 5.48303 18.6689 5.5894 18.9481C5.59091 18.9521 5.59239 18.9559 5.59386 18.9597C5.59788 18.9602 5.60199 18.9607 5.6062 18.9612C5.90287 18.9967 6.32529 19 7.12394 19H16.8777C17.6764 19 18.0988 18.9967 18.3955 18.9612C18.3997 18.9607 18.4038 18.9602 18.4078 18.9597C18.4093 18.9559 18.4108 18.9521 18.4123 18.9481C18.5186 18.6689 18.6243 18.2599 18.818 17.4851L19.0605 16.515L22.9411 17.4851L22.6986 18.4552C22.6912 18.4846 22.6839 18.514 22.6766 18.5433C22.514 19.1942 22.3522 19.8418 22.1502 20.3721C21.9199 20.9767 21.5661 21.6335 20.9009 22.1528C20.2357 22.6722 19.5127 22.8561 18.8704 22.9329C18.3069 23.0003 17.6394 23.0002 16.9685 23C16.9382 23 16.908 23 16.8777 23H7.12394C7.09368 23 7.06342 23 7.03317 23C6.36227 23.0002 5.69476 23.0003 5.13126 22.9329C4.48894 22.8561 3.76594 22.6722 3.10074 22.1528C2.43553 21.6335 2.08177 20.9767 1.85147 20.3721C1.64943 19.8418 1.48767 19.1942 1.32509 18.5433C1.31775 18.514 1.31042 18.4846 1.30308 18.4552Z" fill="currentColor"/>
<path d="M6.00003 9C5.59557 9 5.23093 9.24364 5.07615 9.61732C4.92137 9.99099 5.00692 10.4211 5.29292 10.7071L8.51104 13.9252C9.13785 14.5521 9.67792 15.0922 10.1686 15.4666C10.6944 15.8678 11.2793 16.1716 12 16.1716C12.7208 16.1716 13.3056 15.8678 13.8315 15.4666C14.3221 15.0922 14.8622 14.5521 15.489 13.9252L18.7071 10.7071C18.9931 10.4211 19.0787 9.99099 18.9239 9.61732C18.7691 9.24364 18.4045 9 18 9H6.00003Z" fill="currentColor"/>
<path fill-rule="evenodd" clip-rule="evenodd" d="M10 15V1H14V15H10Z" fill="currentColor"/>
</svg>
